# xmcd
#
# Track frame offsets: 
#        150
#        25113
#        42974
#        78358
#        96307
#        128572
#        149347
#
# Disc length: 2317 seconds
#
# Revision: 0
# Processed by: cddbd v1.5.2PL0 Copyright (c) Steve Scherf et al.
# Submitted via: ExactAudioCopy v0.99pb4
#
DISCID=53090b07
DTITLE=Fire Garden - Sam's Song
DYEAR=2007
DGENRE=Rock
TTITLE0=Sam's Song
TTITLE1=Breaking The Chains
TTITLE2=Time 0
TTITLE3=Seas lo que eres
TTITLE4=Why
TTITLE5=All my Lovers
TTITLE6=The Last Breath
EXTD=
EXTT0=
EXTT1=
EXTT2=
EXTT3=
EXTT4=
EXTT5=
EXTT6=
PLAYORDER=
